<svg width="40" height="40" viewBox="0 0 40 40" fill="none" xmlns="http://www.w3.org/2000/svg">
<path d="M33.3333 2.85714V10.4762M37.1428 6.66667H29.5238M26.6667 18.0952L13.3333 10.4762M21.8895 7.74667L31.4133 13.1886C31.9967 13.5218 32.4815 14.0033 32.8187 14.5844C33.1559 15.1654 33.3334 15.8253 33.3333 16.4971V25.4076C33.3334 26.0794 33.1559 26.7393 32.8187 27.3204C32.4815 27.9014 31.9967 28.383 31.4133 28.7162L21.8895 34.1581C21.314 34.4868 20.6627 34.6597 20 34.6597C19.3372 34.6597 18.686 34.4868 18.1105 34.1581L8.58666 28.7162C8.00331 28.383 7.51846 27.9014 7.18127 27.3204C6.84408 26.7393 6.66654 26.0794 6.66666 25.4076V16.4971C6.66654 15.8253 6.84408 15.1654 7.18127 14.5844C7.51846 14.0033 8.00331 13.5218 8.58666 13.1886L18.1105 7.74667C18.686 7.41794 19.3372 7.24504 20 7.24504C20.6627 7.24504 21.314 7.41794 21.8895 7.74667Z" stroke="black" stroke-width="2.5" stroke-linecap="round" stroke-linejoin="round"/>
<path d="M7.61905 15.2381L18.1943 20.9333C18.7493 21.2321 19.3697 21.3885 20 21.3885C20.6303 21.3885 21.2507 21.2321 21.8057 20.9333L32.381 15.2381M20 21.9048V34.2857" stroke="black" stroke-width="2.5" stroke-linecap="round" stroke-linejoin="round"/>
</svg>
