<svg width="206" height="53" viewBox="0 0 206 53" fill="none" xmlns="http://www.w3.org/2000/svg">
<path d="M4.56817 27.9205H0V23.3523H9.13634V27.9205H18.2727V18.7841H4.56817V14.216H0V5.07964H4.56817V0.511475H22.8408V5.07964H27.409V9.64781H18.2727V5.07964H9.13634V14.216H22.8408V18.7841H27.409V27.9205H22.8408V32.4886H4.56817V27.9205Z" fill="#333333"/>
<path d="M45.6638 32.4886V14.216H41.0957V32.4886H31.9593V9.64781H63.9365V14.216H68.5047V32.4886H59.3683V14.216H54.8002V32.4886H45.6638Z" fill="#333333"/>
<path d="M73.0728 32.4886V9.64781H82.2092V32.4886H73.0728ZM73.0728 5.07964V0.511475H82.2092V5.07964H73.0728Z" fill="#333333"/>
<path d="M95.9003 32.4886H86.764V0.511475H95.9003V32.4886Z" fill="#333333"/>
<path d="M123.296 9.64781V14.216H127.864V23.3523H109.591V27.9205H127.864V32.4886H105.023V27.9205H100.455V14.216H105.023V9.64781H123.296ZM118.728 14.216H109.591V18.7841H118.728V14.216Z" fill="#333333"/>
<path d="M141.551 32.4886H132.414V27.9205H141.551V32.4886Z" fill="#333333"/>
<path d="M150.674 27.9205H146.106V5.07964H150.674V0.511475H168.946V5.07964H173.515V9.64781H164.378V5.07964H155.242V27.9205H164.378V23.3523H173.515V27.9205H168.946V32.4886H150.674V27.9205Z" fill="#333333"/>
<path d="M182.633 27.9205H178.065V14.216H182.633V9.64781H200.906V14.216H205.474V27.9205H200.906V32.4886H182.633V27.9205ZM196.338 14.216H187.201V27.9205H196.338V14.216Z" fill="#333333"/>
<path d="M4 40.3307V41.664H1.33333V48.3307H4V49.664H0V40.3307H4ZM6.66667 46.9973H5.33333V42.9973H6.66667V46.9973ZM5.33333 42.9973H4V41.664H5.33333V42.9973ZM5.33333 48.3307H4V46.9973H5.33333V48.3307Z" fill="#333333"/>
<path d="M13.3372 44.3307H9.33724V42.9973H13.3372V44.3307ZM9.33724 46.9973V48.3307H8.00391V44.3307H9.33724V45.664H13.3372V44.3307H14.6706V46.9973H9.33724ZM14.6706 49.664H9.33724V48.3307H14.6706V49.664Z" fill="#333333"/>
<path d="M20.0078 49.664H18.6745V48.3307H20.0078V49.664ZM18.6745 48.3307H17.3411V46.9973H18.6745V48.3307ZM21.3411 48.3307H20.0078V46.9973H21.3411V48.3307ZM17.3411 46.9973H16.0078V42.9973H17.3411V46.9973ZM22.6745 46.9973H21.3411V42.9973H22.6745V46.9973Z" fill="#333333"/>
<path d="M29.3451 44.3307H25.3451V42.9973H29.3451V44.3307ZM25.3451 46.9973V48.3307H24.0117V44.3307H25.3451V45.664H29.3451V44.3307H30.6784V46.9973H25.3451ZM30.6784 49.664H25.3451V48.3307H30.6784V49.664Z" fill="#333333"/>
<path d="M33.349 49.664H32.0156V40.3307H33.349V49.664Z" fill="#333333"/>
<path d="M36.0208 48.3307H34.6875V44.3307H36.0208V48.3307ZM40.0208 44.3307H36.0208V42.9973H40.0208V44.3307ZM41.3542 48.3307H40.0208V44.3307H41.3542V48.3307ZM40.0208 49.664H36.0208V48.3307H40.0208V49.664Z" fill="#333333"/>
<path d="M48.0247 48.3307V44.3307H49.3581V48.3307H48.0247ZM44.0247 46.9973H45.3581V48.3307H44.0247V52.3307H42.6914V42.9973H44.0247V44.3307H45.3581V45.664H44.0247V46.9973ZM45.3581 44.3307V42.9973H48.0247V44.3307H45.3581ZM45.3581 49.664V48.3307H48.0247V49.664H45.3581Z" fill="#333333"/>
<path d="M56.0286 44.3307H52.0286V42.9973H56.0286V44.3307ZM52.0286 46.9973V48.3307H50.6953V44.3307H52.0286V45.664H56.0286V44.3307H57.362V46.9973H52.0286ZM57.362 49.664H52.0286V48.3307H57.362V49.664Z" fill="#333333"/>
<path d="M62.6992 45.664H61.3659V44.3307H62.6992V45.664ZM64.0326 44.3307H62.6992V42.9973H64.0326V44.3307ZM60.0326 46.9973V49.664H58.6992V42.9973H60.0326V45.664H61.3659V46.9973H60.0326Z" fill="#333333"/>
</svg>
