<svg width="30" height="30" viewBox="0 0 40 40" fill="none" xmlns="http://www.w3.org/2000/svg">
<path d="M2.5 20C2.5 22.2981 2.95265 24.5738 3.83211 26.697C4.71157 28.8202 6.00061 30.7493 7.62563 32.3744C9.25066 33.9994 11.1798 35.2884 13.303 36.1679C15.4262 37.0474 17.7019 37.5 20 37.5C22.2981 37.5 24.5738 37.0474 26.697 36.1679C28.8202 35.2884 30.7493 33.9994 32.3744 32.3744C33.9994 30.7493 35.2884 28.8202 36.1679 26.697C37.0474 24.5738 37.5 22.2981 37.5 20C37.5 17.7019 37.0474 15.4262 36.1679 13.303C35.2884 11.1798 33.9994 9.25066 32.3744 7.62563C30.7493 6.00061 28.8202 4.71157 26.697 3.83211C24.5738 2.95265 22.2981 2.5 20 2.5C17.7019 2.5 15.4262 2.95265 13.303 3.83211C11.1798 4.71157 9.25066 6.00061 7.62563 7.62563C6.00061 9.25066 4.71157 11.1798 3.83211 13.303C2.95265 15.4262 2.5 17.7019 2.5 20Z" stroke="#333333" stroke-width="4" stroke-linecap="round" stroke-linejoin="round"/>
<path d="M24.8611 25.8333C24.2274 26.4801 23.4711 26.9938 22.6364 27.3446C21.8017 27.6953 20.9054 27.876 20 27.876C19.0946 27.876 18.1983 27.6953 17.3636 27.3446C16.5289 26.9938 15.7725 26.4801 15.1389 25.8333M12.2222 14.1667L16.1111 18.0556M16.1111 14.1667L12.2222 18.0556M23.8889 14.1667L27.7778 18.0556M27.7778 14.1667L23.8889 18.0556" stroke="#333333" stroke-width="4" stroke-linecap="round" stroke-linejoin="round"/>
</svg>
